<?xml version="1.0" standalone="no"?>
<!DOCTYPE svg PUBLIC "-//W3C//DTD SVG 20010904//EN"
 "http://www.w3.org/TR/2001/REC-SVG-20010904/DTD/svg10.dtd">
<svg version="1.0" xmlns="http://www.w3.org/2000/svg"
 width="1920.000000pt" height="1920.000000pt" viewBox="0 0 1920.000000 1920.000000"
 preserveAspectRatio="xMidYMid meet">

<g transform="translate(0.000000,1920.000000) scale(0.100000,-0.100000)"
fill="#000000" stroke="none">
<path d="M0 9600 l0 -9600 9600 0 9600 0 0 9600 0 9600 -9600 0 -9600 0 0
-9600z m3698 3118 l-3 -43 315 -7 c173 -4 648 -14 1055 -23 407 -8 918 -20
1135 -25 515 -13 6560 -13 7100 0 228 5 638 14 910 20 272 5 572 12 665 15 94
2 322 8 508 11 l337 7 0 44 c0 43 1 44 28 39 15 -4 65 -13 111 -21 46 -8 85
-16 86 -17 2 -2 -9 -110 -23 -240 l-26 -238 -93 0 -93 0 0 30 c0 29 -1 30 -47
30 -27 0 -284 -14 -573 -30 -301 -17 -627 -30 -765 -30 -132 0 -233 -4 -225
-9 8 -4 363 -104 789 -222 l773 -214 -4 -262 -5 -263 202 0 201 0 46 -47 47
-48 3 -185 c3 -172 6 -193 35 -300 40 -144 67 -275 103 -509 25 -159 32 -187
52 -206 13 -12 146 -138 295 -280 l273 -257 -6 -132 c-28 -687 -66 -1185 -112
-1461 -14 -88 -17 -266 -22 -1480 l-5 -1380 -27 -50 c-50 -96 -130 -158 -258
-201 -52 -18 -116 -19 -1165 -22 -830 -2 -1117 0 -1138 9 -59 25 -57 -10 -57
909 l0 841 -67 -6 c-171 -15 -389 -26 -630 -32 l-263 -6 0 126 0 126 43 11
c718 188 1617 455 2002 595 457 167 675 365 804 730 107 301 193 790 246 1385
9 102 25 259 37 350 23 183 25 150 -33 500 -15 96 -38 220 -49 275 -41 199
-106 403 -126 397 -5 -2 -11 7 -14 19 -4 17 -45 41 -183 107 -97 47 -179 83
-181 81 -2 -2 8 -118 21 -257 14 -139 23 -255 20 -258 -6 -7 -1960 258 -1971
267 -5 4 -35 147 -66 318 -32 170 -62 315 -66 323 -4 7 -49 67 -99 133 -118
155 -245 384 -245 443 0 23 5 42 10 42 6 0 10 -19 10 -41 0 -56 115 -267 223
-411 45 -59 82 -106 83 -105 9 9 -116 425 -156 519 -27 64 -50 121 -50 127 0
6 -17 11 -37 11 l-37 0 28 -29 c55 -57 2 -99 -56 -44 -27 25 -36 27 -260 49
l-233 23 -3115 1 c-3095 0 -3116 0 -3345 -21 -147 -14 -238 -26 -252 -35 -19
-12 -23 -23 -23 -65 0 -45 -9 -69 -71 -183 -40 -72 -116 -191 -171 -264 l-100
-133 -59 -316 c-33 -175 -63 -320 -67 -324 -4 -3 -216 -34 -472 -68 -256 -35
-696 -94 -979 -132 -282 -39 -516 -68 -519 -65 -3 3 5 118 18 256 13 137 21
252 18 255 -2 3 -84 -33 -180 -79 l-175 -84 -22 -114 c-29 -147 -38 -355 -21
-484 13 -105 45 -243 59 -257 5 -5 50 5 105 22 500 160 1539 324 2398 377
l106 7 32 -64 c18 -34 96 -141 174 -236 138 -168 142 -172 179 -173 24 0 49 8
64 20 26 20 41 20 3293 20 3254 0 3267 0 3285 -20 13 -15 30 -20 64 -19 l46 0
140 172 c77 94 156 202 176 239 l37 69 -131 -3 -131 -3 -63 -88 c-36 -49 -62
-95 -59 -103 5 -12 -468 -14 -3352 -14 -3191 0 -3358 1 -3358 18 0 9 -28 56
-63 105 l-63 87 -134 0 c-74 0 -134 3 -134 8 0 4 38 99 85 210 l85 204 0 599
0 599 100 0 100 0 0 -627 0 -628 29 50 c16 28 115 183 219 345 l189 294 339
263 339 262 940 1 c517 0 1532 3 2255 7 l1315 6 348 -269 348 -269 166 -260
c92 -143 191 -298 220 -344 l53 -84 0 626 0 627 100 0 100 0 0 -603 0 -602 85
-202 c47 -111 85 -206 85 -211 0 -5 42 -12 93 -16 740 -54 1507 -160 2017
-278 151 -35 422 -111 471 -132 19 -8 43 69 66 218 18 121 13 344 -12 480 -19
107 -13 125 9 29 47 -198 44 -452 -10 -662 -25 -100 -25 -106 -11 -160 90
-331 57 -749 -82 -1046 l-38 -80 -194 -62 c-823 -263 -1716 -469 -2377 -549
-129 -16 -143 -19 -147 -38 -3 -12 -18 -122 -35 -246 -24 -179 -30 -262 -30
-402 0 -162 -1 -176 -18 -180 -17 -5 -19 -22 -25 -173 -4 -93 -7 -237 -7 -322
l0 -153 35 0 c32 0 35 -2 35 -30 0 -16 -4 -30 -10 -30 -5 0 -10 9 -10 20 0 16
-7 20 -36 20 l-37 0 7 310 c4 171 5 310 3 310 -3 0 -47 -125 -97 -277 -51
-153 -117 -334 -147 -403 l-54 -126 -62 -34 c-34 -19 -66 -37 -70 -39 -5 -2
-36 23 -68 55 l-59 58 0 273 0 273 -467 3 -468 2 478 3 477 2 0 -277 0 -278
54 -47 53 -46 58 33 c57 32 60 36 103 131 24 55 93 244 152 420 l108 322 -209
208 c-169 168 -209 214 -209 236 0 22 5 27 28 30 l27 3 3 410 c2 225 5 411 7
414 2 2 15 -3 27 -11 28 -18 407 -383 425 -409 11 -14 6 -62 -22 -259 -31
-217 -35 -263 -33 -429 l2 -186 6 200 c5 146 15 260 39 425 18 124 35 228 39
231 4 3 75 13 157 23 633 73 1616 301 2383 551 l172 56 26 51 c40 79 92 248
116 376 38 211 27 484 -29 692 l-18 65 -100 33 c-445 147 -1263 283 -2180 362
-330 28 -309 30 -340 -30 l-25 -50 77 0 c105 0 437 -26 658 -51 491 -55 1038
-153 1562 -279 152 -37 172 -44 177 -64 26 -104 36 -499 16 -656 -12 -93 -42
-240 -58 -281 -9 -23 -28 -31 -164 -72 -593 -179 -1247 -330 -1812 -417 -256
-40 -544 -72 -559 -63 -7 4 -97 84 -200 177 l-188 171 -92 6 c-122 9 -6049 11
-6205 2 l-122 -6 -197 -178 -197 -179 -55 6 c-596 63 -1224 184 -1891 363
-335 89 -563 160 -577 178 -14 18 -49 167 -63 268 -24 181 -21 485 8 660 l7
40 190 48 c337 84 820 178 1195 232 358 51 821 95 1003 95 42 0 77 2 77 5 0 2
-10 25 -22 51 l-23 47 -110 -7 c-248 -15 -758 -67 -1085 -112 -531 -72 -1104
-192 -1347 -282 -55 -20 -59 -28 -95 -195 -32 -150 -32 -435 0 -595 26 -128
67 -260 108 -347 l29 -60 173 -58 c739 -246 1798 -490 2431 -559 62 -7 115
-17 117 -23 2 -5 17 -111 34 -235 24 -184 30 -260 30 -413 0 -118 4 -187 10
-187 6 0 10 63 10 170 0 143 -6 209 -35 407 -19 130 -35 248 -35 261 0 18 44
67 178 197 191 186 268 255 283 255 5 0 9 -163 9 -414 l0 -415 28 -3 c20 -2
28 -9 30 -27 3 -20 -35 -63 -214 -242 l-219 -219 103 -310 c57 -170 125 -357
151 -416 47 -104 49 -107 106 -139 l58 -33 53 46 54 47 0 278 0 277 448 -2
447 -3 -435 -5 -435 -5 -3 -270 -2 -270 -57 -57 c-32 -32 -60 -58 -64 -58 -4
0 -36 17 -72 37 l-65 37 -51 116 c-28 63 -92 234 -141 380 l-90 265 3 -285 2
-285 -32 -3 c-20 -2 -33 -9 -33 -17 0 -8 -4 -17 -10 -20 -6 -4 -10 7 -10 24 0
29 2 31 37 31 l36 0 -6 188 c-4 103 -7 247 -7 320 0 125 -1 134 -20 139 -19 5
-20 14 -20 174 0 137 -6 215 -35 420 -19 138 -36 253 -37 254 -2 1 -66 10
-143 20 -682 83 -1579 292 -2420 562 -82 26 -147 53 -157 64 -26 30 -85 191
-118 322 -61 243 -63 494 -4 755 l25 114 -25 96 c-57 223 -60 471 -7 679 11
40 17 73 15 73 -10 0 -48 -103 -79 -215 -64 -234 -150 -727 -148 -855 0 -47
12 -166 26 -265 14 -99 28 -211 32 -250 29 -330 93 -765 147 -1005 89 -399
177 -601 327 -751 167 -166 331 -246 881 -429 452 -151 1029 -317 1703 -491
l37 -10 0 -126 0 -126 -262 7 c-145 3 -357 13 -473 21 -115 8 -213 15 -217 15
-5 0 -8 -378 -8 -840 l0 -840 -27 -30 -28 -31 -1116 1 c-1217 0 -1169 -2
-1287 57 -70 35 -145 118 -171 188 -21 55 -21 65 -21 1368 l0 1312 -24 175
c-53 379 -93 898 -111 1445 l-5 170 250 235 c138 129 270 255 295 280 l44 45
26 170 c31 203 78 442 106 545 19 65 21 99 20 259 l-2 184 53 54 52 53 202 0
201 0 -5 269 c-5 257 -4 269 14 274 10 3 345 96 744 207 399 111 736 205 750
210 16 5 -47 9 -167 9 -105 1 -432 14 -725 31 -293 16 -558 31 -588 32 l-55 3
1 -32 0 -33 -92 0 -92 0 -6 38 c-14 91 -47 424 -43 435 2 7 45 19 98 28 139
24 131 26 127 -23z m9032 -4370 l0 -402 -37 -38 -37 -38 -523 0 -523 0 0 -360
0 -360 -175 0 -175 0 0 -295 0 -295 -1570 0 -1570 0 0 295 0 295 -205 0 -205
0 0 360 0 360 -477 0 -477 0 -33 32 -33 32 0 408 0 408 3020 0 3020 0 0 -402z
m-999 -1234 c41 -12 66 -28 104 -67 57 -59 75 -105 75 -194 0 -144 -113 -253
-262 -253 -103 1 -188 52 -233 139 -75 150 -7 320 151 376 52 19 99 18 165 -1z
m573 -4 c61 -23 127 -87 153 -148 9 -20 16 -64 16 -97 1 -152 -112 -265 -263
-265 -240 0 -354 285 -182 453 74 73 177 94 276 57z m-5020 -38 c89 -50 143
-155 133 -258 -14 -136 -125 -234 -267 -234 -142 0 -247 99 -258 240 -5 72 11
129 51 182 81 106 224 135 341 70z m563 23 c107 -32 185 -137 186 -250 1 -151
-112 -265 -262 -265 -154 1 -264 111 -265 265 0 110 72 210 176 246 65 23 100
23 165 4z"/>
<path d="M3573 12722 c-98 -18 -91 13 -60 -262 l22 -195 78 -3 77 -3 0 33 0
33 568 -32 c522 -29 616 -32 1194 -32 438 -1 629 -4 634 -12 3 -6 -6 -23 -20
-38 -48 -50 -24 -72 26 -24 27 26 36 28 266 50 l237 22 3095 1 3095 0 260 -25
c253 -24 260 -25 278 -50 10 -14 27 -25 38 -25 26 0 24 12 -6 40 -14 13 -25
32 -25 42 0 17 27 18 633 18 577 0 678 3 1157 30 670 38 610 38 610 -5 l0 -35
75 0 c65 0 75 2 75 18 1 9 11 109 24 222 13 113 20 208 17 211 -3 4 -37 12
-76 18 -38 7 -78 14 -87 17 -14 4 -17 -3 -20 -38 l-3 -43 -525 -11 c-289 -7
-667 -15 -840 -18 -173 -4 -486 -11 -695 -17 -492 -12 -7364 -12 -7850 1 -203
5 -737 16 -1185 25 -448 9 -848 18 -887 21 l-73 6 0 39 c0 25 -4 39 -12 38 -7
-1 -50 -8 -95 -17z"/>
<path d="M4543 12017 l-793 -222 0 -157 c0 -120 3 -158 13 -158 6 0 480 119
1051 263 l1039 263 49 113 c26 62 48 115 48 117 0 2 -138 4 -307 3 l-308 -1
-792 -221z"/>
<path d="M5921 12118 c-47 -112 -167 -519 -152 -517 3 0 38 44 78 97 98 133
223 360 223 406 0 29 -4 36 -20 36 -10 0 -24 9 -30 21 -10 17 -7 23 14 40 37
29 32 39 -18 39 l-43 0 -52 -122z"/>
<path d="M13462 12168 c76 -181 73 -176 115 -187 21 -5 371 -94 778 -196 746
-188 1235 -312 1268 -321 16 -5 17 7 17 155 l0 160 -67 20 c-67 19 -642 180
-1223 341 -162 45 -299 86 -304 91 -6 5 -146 9 -313 9 l-302 0 31 -72z"/>
<path d="M6147 12143 c-3 -4 -5 -278 -6 -609 l-1 -601 -79 -186 -79 -187 114
0 c110 0 114 1 104 19 -5 11 -10 21 -10 23 0 2 114 2 252 0 l253 -3 146 123
c81 68 208 177 283 242 l137 119 272 102 c150 56 271 106 270 112 -2 11 -353
785 -359 791 -1 2 -151 -110 -332 -250 l-329 -253 -179 -279 c-98 -154 -205
-322 -236 -375 l-58 -96 -2 655 -3 655 -77 3 c-42 2 -78 -1 -81 -5z"/>
<path d="M13110 11493 l-1 -658 -22 38 c-61 106 -441 695 -460 713 -31 31
-649 506 -652 502 -7 -7 -366 -800 -363 -802 2 -2 126 -48 276 -104 l273 -101
112 -99 c62 -54 188 -162 281 -241 l169 -143 253 4 c140 2 254 2 254 0 0 -2
-5 -12 -10 -23 -10 -18 -6 -19 100 -19 60 0 110 3 110 8 0 4 -36 92 -80 197
l-80 189 0 598 0 598 -80 0 -80 0 0 -657z"/>
<path d="M8642 12103 c-701 -2 -1172 -7 -1170 -12 2 -5 84 -187 183 -405 l180
-395 1878 2 1878 2 169 388 c93 213 172 397 175 408 6 19 -8 19 -1057 17 -585
-2 -1591 -4 -2236 -5z"/>
<path d="M5575 11916 c-132 -34 -597 -152 -1033 -262 l-794 -199 6 -70 c18
-201 16 -195 40 -190 11 3 451 84 976 181 525 96 957 177 959 180 6 5 111 395
111 412 0 17 1 17 -265 -52z"/>
<path d="M13550 11957 c0 -14 108 -418 112 -422 3 -2 1761 -326 1886 -347 34
-6 64 -9 67 -6 7 6 28 249 22 254 -5 5 -340 91 -1414 362 -420 106 -673 166
-673 159z"/>
<path d="M5215 11439 c-264 -49 -703 -129 -975 -179 -272 -50 -502 -93 -511
-95 -12 -4 -20 -51 -39 -255 -12 -138 -21 -252 -18 -255 2 -3 119 11 259 30
1051 141 1675 227 1678 231 6 6 111 564 111 592 0 12 -6 22 -12 21 -7 0 -229
-41 -493 -90z"/>
<path d="M13675 11488 c3 -13 28 -147 55 -298 28 -151 52 -280 55 -286 2 -7
25 -15 52 -18 26 -4 462 -63 967 -131 506 -68 922 -123 923 -121 8 8 -42 489
-52 501 -8 10 -1960 376 -1998 375 -4 0 -5 -10 -2 -22z"/>
<path d="M7536 11166 l-268 -101 -179 -155 -178 -155 923 -3 922 -2 49 -50 49
-50 851 0 851 0 49 50 49 50 927 2 926 3 -178 155 -179 155 -272 102 -273 102
-1900 -1 -1900 0 -269 -102z"/>
<path d="M3297 11202 l-47 -48 0 -144 1 -145 30 63 31 64 192 92 c105 51 204
96 219 100 22 5 27 12 27 36 l0 30 -203 0 -203 0 -47 -48z"/>
<path d="M15640 11211 c0 -36 3 -40 31 -46 17 -4 117 -49 223 -100 185 -89
194 -94 212 -134 11 -22 21 -41 24 -41 3 0 4 62 3 137 l-2 136 -43 44 -42 43
-203 0 -203 0 0 -39z"/>
<path d="M6856 10655 l-29 -75 -62 0 c-47 0 -68 -5 -88 -20 -23 -18 -40 -20
-226 -20 l-201 0 67 -95 68 -94 3324 2 3324 2 63 85 c34 47 63 88 63 93 1 4
-87 7 -195 7 -178 0 -198 2 -223 20 -20 13 -48 20 -97 22 l-69 3 -29 73 -30
72 -931 0 -931 0 -49 -50 -49 -50 -856 0 -856 0 -49 50 -49 50 -931 0 -930 0
-29 -75z"/>
<path d="M12561 10668 c11 -29 23 -56 25 -60 6 -10 94 -11 93 0 0 8 -124 112
-133 112 -3 0 4 -23 15 -52z"/>
<path d="M6794 10659 c-73 -60 -72 -59 -23 -59 44 0 45 1 62 47 9 25 16 48 14
49 -2 2 -25 -15 -53 -37z"/>
<path d="M6222 10579 c4 -11 45 -15 204 -17 109 -1 209 0 222 3 57 14 4 20
-204 24 -189 3 -226 1 -222 -10z"/>
<path d="M12753 10575 c2 -6 87 -11 219 -13 192 -2 216 -1 222 14 6 15 -13 16
-219 13 -144 -3 -224 -8 -222 -14z"/>
<path d="M5650 10379 c-577 -44 -1264 -154 -1905 -307 l-199 -47 -7 -35 c-13
-63 -29 -263 -29 -366 0 -177 40 -465 73 -533 14 -27 80 -50 447 -150 719
-199 1356 -325 1958 -391 l102 -11 199 180 199 181 71 0 71 0 0 590 0 590 -98
0 c-87 0 -101 -2 -117 -20 -15 -17 -29 -20 -69 -18 l-51 3 -140 172 -140 172
-130 -1 c-71 0 -177 -4 -235 -9z m830 -849 l0 -330 -435 0 -435 0 0 330 0 330
435 0 435 0 0 -330z m-1920 -10 l0 -330 -430 0 -430 0 0 330 0 330 430 0 430
0 0 -330z m840 -555 l0 -145 -330 0 -330 0 0 145 0 145 330 0 330 0 0 -145z"/>
<path d="M5630 9530 l0 -310 415 0 415 0 0 310 0 310 -415 0 -415 0 0 -310z"/>
<path d="M3720 9520 l0 -310 415 0 415 0 0 310 0 310 -415 0 -415 0 0 -310z"/>
<path d="M4760 8965 l0 -125 310 0 310 0 0 125 0 125 -310 0 -310 0 0 -125z"/>
<path d="M13242 10215 l-143 -175 -53 0 c-40 0 -57 5 -71 20 -16 17 -31 20
-112 20 l-93 0 0 -590 0 -590 70 0 69 0 198 -180 198 -180 60 5 c373 36 908
127 1360 231 311 72 812 206 1007 270 l78 26 15 52 c62 212 77 500 43 799
l-11 97 -36 10 c-681 183 -1844 361 -2341 359 l-95 0 -143 -174z m546 -687 l2
-328 -435 0 -435 0 0 330 0 330 433 -2 432 -3 3 -327z m1912 -8 l0 -330 -435
0 -435 0 0 330 0 330 435 0 435 0 0 -330z m-1040 -555 l0 -145 -330 0 -330 0
0 145 0 145 330 0 330 0 0 -145z"/>
<path d="M12940 9530 l0 -310 415 0 415 0 0 310 0 310 -415 0 -415 0 0 -310z"/>
<path d="M14850 9520 l0 -310 415 0 415 0 0 310 0 310 -415 0 -415 0 0 -310z"/>
<path d="M14020 8965 l0 -125 310 0 310 0 0 125 0 125 -310 0 -310 0 0 -125z"/>
<path d="M6650 9495 l0 -585 3050 0 3050 0 0 585 0 585 -3050 0 -3050 0 0
-585z"/>
<path d="M2787 9698 l-277 -262 0 -65 c0 -206 39 -851 71 -1171 68 -690 170
-1100 304 -1218 191 -168 806 -322 1705 -426 492 -58 1076 -100 1485 -108
l140 -3 3 104 c1 57 -1 108 -5 112 -4 4 -120 37 -258 74 -811 215 -1498 425
-1870 572 -448 176 -625 366 -750 807 -88 309 -161 740 -205 1211 -6 66 -22
197 -36 292 -13 94 -25 210 -27 257 -1 47 -2 86 -2 86 0 0 -125 -118 -278
-262z"/>
<path d="M16326 9893 c-3 -37 -13 -120 -21 -183 -8 -63 -24 -218 -35 -345 -63
-696 -173 -1243 -305 -1505 -118 -235 -291 -393 -564 -516 -288 -129 -1213
-414 -2093 -645 l-128 -33 0 -113 0 -113 108 5 c59 2 177 7 262 10 989 36
2120 192 2629 361 213 72 333 143 391 233 154 241 264 996 310 2120 9 214 8
267 -2 276 -34 31 -412 387 -474 448 l-71 69 -7 -69z"/>
<path d="M6403 8492 l-211 -207 35 -220 c28 -179 36 -258 40 -424 l5 -204 209
209 c115 115 209 214 209 221 0 8 -13 13 -30 13 l-30 0 0 410 c0 226 -3 410
-7 410 -5 -1 -103 -94 -220 -208z"/>
<path d="M12760 8281 l0 -408 -25 5 c-57 10 -21 -37 178 -236 111 -111 206
-202 210 -202 4 0 7 78 7 173 0 147 5 209 36 421 l37 250 -209 202 c-115 112
-215 203 -221 204 -10 0 -13 -88 -13 -409z"/>
<path d="M16746 7538 c-49 -230 -103 -402 -150 -483 -71 -121 -219 -202 -541
-295 -121 -35 -130 -40 -133 -64 l-3 -26 97 0 c54 0 95 -3 91 -6 -3 -3 -46 -7
-94 -8 l-88 -1 -3 -112 -3 -112 98 -3 98 -3 3 -39 c2 -21 -1 -43 -7 -49 -8 -8
-11 1 -11 31 l0 42 -90 0 -90 0 0 -45 0 -45 50 0 c28 0 50 -4 50 -10 0 -5 -22
-10 -50 -10 l-50 0 0 -55 0 -55 96 0 c61 0 93 -4 89 -10 -3 -5 -47 -10 -96
-10 l-90 0 3 -62 3 -63 50 -6 50 -6 -52 -1 -53 -2 0 -40 0 -39 98 -3 97 -3 3
-39 c2 -21 -1 -43 -7 -49 -8 -8 -11 1 -11 31 l0 42 -90 0 -90 0 0 -45 0 -45
50 0 c28 0 50 -4 50 -10 0 -5 -22 -10 -50 -10 l-50 0 0 -50 0 -50 95 0 c57 0
95 -4 95 -10 0 -6 -38 -10 -95 -10 l-96 0 3 -62 3 -63 50 -6 50 -6 -52 -1 -53
-2 0 -40 0 -39 98 -3 97 -3 3 -39 c2 -21 -1 -43 -7 -49 -8 -8 -11 1 -11 31 l0
42 -90 0 -90 0 0 -45 0 -45 50 0 c28 0 50 -4 50 -10 0 -5 -23 -10 -51 -10
l-50 0 3 -47 3 -46 87 2 c52 1 89 -2 93 -8 4 -8 -25 -11 -89 -11 l-96 0 0 -65
0 -65 50 0 c29 0 50 -5 50 -11 0 -6 -18 -9 -47 -8 l-48 3 0 -39 0 -40 98 -3
97 -3 0 -44 c0 -25 -4 -45 -10 -45 -5 0 -10 18 -10 40 l0 40 -90 0 -90 0 0
-49 0 -50 53 -4 52 -3 -52 -2 -53 -2 0 -80 0 -80 110 0 110 0 2 987 3 988 105
31 105 32 6 43 5 44 5 -41 4 -41 107 31 108 31 0 53 c0 30 4 51 9 47 7 -4 9
-74 2 -106 0 -4 -53 -22 -116 -40 l-115 -33 0 -62 0 -62 108 32 107 32 3 52
c2 29 7 52 13 52 11 0 12 -90 1 -107 -4 -6 -58 -26 -120 -44 l-112 -32 0 -59
c0 -40 4 -58 13 -58 6 0 55 13 107 28 l95 28 3 52 c2 29 7 52 13 52 11 0 12
-90 1 -106 -4 -6 -33 -19 -64 -28 -32 -9 -83 -23 -113 -32 l-55 -15 0 -60 c0
-32 3 -59 8 -59 4 0 52 13 107 28 l100 29 3 51 c2 29 7 52 12 52 12 0 7 -97
-5 -109 -10 -9 -26 -14 -152 -51 l-73 -21 0 -59 c0 -64 1 -65 46 -51 16 6 62
19 102 31 l72 21 0 55 c0 34 4 53 10 49 14 -9 12 -101 -2 -113 -7 -5 -22 -12
-33 -15 -11 -3 -59 -17 -107 -32 l-88 -26 0 -59 c0 -33 3 -60 8 -60 4 0 34 9
67 19 33 10 79 24 103 30 l42 12 0 55 c0 34 4 53 10 49 15 -9 12 -102 -2 -112
-7 -4 -60 -22 -118 -39 l-105 -31 -3 -62 c-3 -56 -1 -62 15 -57 10 3 60 17
111 32 l92 28 0 53 c0 30 4 52 8 49 14 -8 14 -103 1 -112 -6 -4 -60 -21 -118
-39 l-106 -31 -3 -63 c-2 -49 0 -62 10 -59 7 3 57 18 111 34 l97 28 0 53 c0
30 4 52 9 49 5 -3 9 -29 8 -57 0 -58 9 -51 -132 -94 l-100 -31 -3 -63 c-2 -48
0 -62 10 -58 7 3 57 18 110 33 l98 29 0 54 c0 67 14 59 16 -10 3 -58 7 -56
-133 -94 l-103 -28 0 -63 0 -62 108 32 107 31 3 53 c2 28 7 52 13 52 11 0 12
-90 1 -107 -4 -6 -58 -26 -120 -44 l-112 -32 0 -59 c0 -40 4 -58 13 -58 6 0
55 13 107 28 l95 28 3 52 c2 29 7 52 11 52 9 0 9 -106 0 -113 -2 -3 -30 -12
-61 -21 -32 -9 -83 -23 -113 -32 l-55 -15 0 -60 c0 -32 3 -59 8 -59 4 0 52 13
107 28 l100 29 3 51 c4 65 20 68 20 4 1 -59 -3 -65 -53 -79 -22 -6 -73 -21
-112 -33 l-73 -21 0 -59 c0 -64 1 -65 46 -51 16 6 62 19 102 31 l72 21 0 55
c0 68 16 64 19 -4 1 -51 -7 -65 -44 -75 -11 -3 -59 -18 -107 -32 l-88 -26 0
-60 c0 -32 3 -59 8 -59 4 0 34 9 67 19 33 10 79 24 103 30 l42 12 0 55 c0 34
4 53 10 49 14 -9 12 -88 -2 -107 -7 -8 -59 -28 -114 -44 l-102 -29 -7 -58 c-3
-33 -4 -61 -2 -63 2 -2 52 10 110 27 l107 32 0 54 c0 30 4 52 8 49 5 -3 8 -29
8 -58 l-1 -53 -50 -17 c-27 -9 -81 -26 -120 -37 -63 -19 -72 -24 -92 -61 l-21
-40 33 0 c51 0 133 20 192 46 102 45 203 169 203 251 0 33 0 33 -52 35 l-53 2
50 3 c27 3 52 9 56 14 9 15 11 124 3 165 -6 33 -7 34 -58 36 l-51 1 55 6 55 6
1 90 c0 50 -1 96 -4 103 -2 7 -25 13 -56 14 l-51 1 55 6 55 6 0 100 0 100 -52
3 c-29 2 -53 7 -53 12 0 5 24 10 53 12 l52 3 3 98 3 97 -56 0 c-30 0 -55 5
-55 10 0 6 24 10 53 10 l53 0 3 100 2 100 -55 0 c-31 0 -56 5 -56 10 0 6 22
10 49 10 30 0 51 5 53 13 3 6 5 51 6 100 l1 87 -54 0 c-30 0 -55 5 -55 10 0 6
25 10 56 10 l55 0 -2 100 -3 100 -53 0 c-29 0 -53 5 -53 10 0 6 22 10 49 10
35 0 51 4 55 16 7 19 8 157 1 176 -4 9 -22 12 -55 11 -67 -2 -64 15 3 19 l52
3 0 100 0 100 -55 6 -55 6 52 1 c40 2 53 6 57 20 6 18 5 482 0 482 -2 0 -6
-10 -8 -22z"/>
<path d="M2644 7511 c3 -18 6 -125 6 -237 l0 -203 53 -4 52 -3 -52 -2 -53 -2
0 -105 0 -104 58 -4 57 -3 -57 -2 -58 -2 0 -104 0 -105 53 -4 52 -3 -52 -2
-53 -2 0 -104 0 -105 53 -4 52 -3 -52 -2 -53 -2 0 -105 0 -105 50 0 c28 0 50
-3 50 -7 0 -5 -22 -6 -50 -5 l-50 4 0 -106 0 -106 50 0 c30 0 50 -4 50 -11 0
-7 -18 -10 -50 -7 l-50 3 0 -102 0 -103 50 0 c28 0 50 -4 50 -10 0 -5 -22 -10
-50 -10 l-50 0 0 -100 0 -100 50 0 c28 0 50 -4 50 -10 0 -5 -22 -10 -50 -10
l-50 0 0 -100 0 -100 50 0 c28 0 50 -4 50 -10 0 -5 -22 -10 -50 -10 l-50 0 0
-100 0 -100 50 0 c28 0 50 -4 50 -10 0 -5 -23 -10 -51 -10 l-52 0 6 -39 c13
-97 90 -190 200 -241 57 -27 157 -50 216 -50 l24 0 -20 23 c-11 12 -25 31 -31
42 -8 15 -41 30 -126 54 l-116 34 2 61 1 61 6 -55 6 -55 105 -31 c58 -18 106
-30 108 -29 2 2 0 30 -4 62 l-6 60 -52 16 c-28 9 -77 23 -108 32 l-58 16 2 62
2 62 3 -56 4 -55 105 -31 c118 -34 117 -34 112 42 -3 54 8 47 -155 95 l-73 21
2 62 2 62 3 -56 4 -57 97 -27 c53 -15 103 -30 110 -33 10 -3 12 10 10 59 l-3
63 -110 32 -110 31 -1 64 -1 64 4 -57 c2 -32 5 -58 6 -58 1 0 49 -13 107 -30
58 -16 106 -30 108 -30 2 0 2 28 0 62 l-3 61 -110 31 -110 32 -1 64 c-1 64 -1
64 3 8 l4 -57 72 -21 c40 -12 85 -25 101 -31 45 -14 46 -13 46 51 l0 59 -72
21 c-40 12 -91 27 -113 34 l-40 13 -1 59 c-1 58 -1 58 3 7 l4 -53 82 -24 c45
-14 94 -28 110 -32 l27 -6 0 60 0 61 -57 16 c-32 9 -84 24 -115 33 l-58 17 2
60 1 60 6 -54 6 -54 95 -28 c52 -16 101 -29 108 -29 8 0 12 18 12 59 l0 59
-115 33 -115 33 2 61 1 60 6 -55 6 -54 95 -28 c52 -15 101 -28 108 -28 8 0 12
18 12 58 l0 58 -115 34 -115 33 2 61 1 61 6 -55 6 -55 108 -31 107 -32 0 62 0
61 -58 17 c-31 9 -83 24 -114 33 l-58 16 2 62 2 62 3 -56 4 -56 92 -26 c51
-14 100 -29 110 -33 16 -6 18 -1 15 56 l-3 63 -40 13 c-22 7 -73 22 -112 34
l-73 21 2 62 2 62 3 -56 4 -57 97 -27 c53 -15 103 -30 110 -33 10 -3 12 10 10
58 -3 58 -5 64 -28 71 -14 4 -64 19 -112 34 l-88 26 2 62 2 62 3 -56 4 -56 92
-27 c51 -15 100 -30 110 -33 16 -4 18 2 15 58 l-3 62 -110 31 -110 32 -1 64
c-1 65 -1 65 3 8 2 -32 5 -58 7 -58 1 0 47 -13 102 -30 54 -16 102 -30 107
-30 4 0 7 27 7 60 l0 59 -72 22 c-40 11 -91 26 -113 33 l-40 13 -1 64 c-1 63
-1 64 3 7 l4 -57 82 -25 c45 -14 94 -28 110 -31 l27 -7 0 60 0 60 -67 20 c-38
12 -89 27 -115 34 l-48 12 2 61 1 60 6 -54 6 -53 95 -29 c52 -16 101 -29 108
-29 7 0 12 14 12 39 0 38 -2 41 -61 72 -34 18 -81 53 -106 76 -74 72 -142 240
-189 463 -9 47 -22 90 -27 95 -6 6 -7 -2 -3 -24z"/>
<path d="M3040 6821 c0 -40 0 -40 58 -56 31 -9 81 -24 110 -32 l52 -17 0 -988
0 -988 110 0 110 0 0 80 0 80 -50 0 c-27 0 -50 5 -50 10 0 6 23 10 50 10 l50
0 0 45 0 45 -90 0 -90 0 0 -42 c0 -30 -3 -39 -11 -31 -6 6 -9 28 -7 49 l3 39
98 3 97 3 0 39 0 40 -52 2 -53 1 50 6 50 6 3 63 3 62 -96 0 c-57 0 -95 4 -95
10 0 6 38 10 95 10 l95 0 0 45 0 45 -50 0 c-27 0 -50 5 -50 10 0 6 23 10 51
10 l50 0 -3 48 -3 47 -87 3 -88 3 0 -46 c0 -29 -4 -44 -10 -40 -6 4 -9 25 -8
48 l3 42 98 3 97 3 0 39 0 40 -50 0 c-27 0 -50 5 -50 10 0 6 23 10 50 10 l51
0 -3 63 -3 62 -95 6 -95 5 98 2 98 2 -3 52 -3 53 -42 0 c-23 0 -45 4 -49 8 -4
4 16 7 44 7 l52 0 0 50 0 50 -90 0 -90 0 0 -40 c0 -22 -4 -40 -10 -40 -10 0
-11 39 -3 73 4 15 17 17 99 17 l94 0 0 40 0 40 -50 0 c-27 0 -50 5 -50 10 0 6
23 10 50 10 l50 0 0 65 0 64 -97 4 -98 3 98 2 98 2 -3 58 -3 57 -50 6 -50 6
53 1 52 2 0 50 0 50 -90 0 -90 0 0 -40 c0 -22 -4 -40 -10 -40 -10 0 -11 39 -3
73 4 15 17 17 99 17 l94 0 0 115 0 114 -97 4 -98 3 98 2 c94 2 98 3 95 23 -3
18 -25 27 -148 63 -80 24 -176 55 -214 69 -37 15 -70 27 -72 27 -2 0 -4 -18
-4 -39z"/>
<path d="M3040 6702 l0 -58 89 -27 c50 -15 95 -27 100 -27 7 0 11 24 11 58 l0
59 -88 26 c-49 15 -94 27 -100 27 -8 0 -12 -21 -12 -58z"/>
<path d="M16248 6721 l-88 -26 0 -62 c0 -46 3 -61 13 -58 6 2 51 16 100 30
l87 26 0 60 c0 41 -4 59 -12 58 -7 -1 -52 -13 -100 -28z"/>
<path d="M3490 5730 l0 -990 85 0 85 0 -2 972 -3 971 -60 14 c-33 7 -70 15
-82 18 l-23 5 0 -990z"/>
<path d="M15820 6701 l-75 -17 -3 -977 -2 -977 85 0 85 0 0 995 c0 547 -3 995
-7 994 -5 -1 -42 -9 -83 -18z"/>
<path d="M3675 6672 c-3 -3 -5 -439 -5 -969 l0 -963 75 0 75 0 0 955 0 955
-22 4 c-82 18 -118 23 -123 18z"/>
<path d="M15705 6675 c-5 -2 -36 -9 -67 -15 l-58 -11 0 -960 0 -959 75 0 75 0
0 975 c0 536 -3 975 -7 974 -5 0 -12 -2 -18 -4z"/>
<path d="M15415 6622 l-140 -24 3 -150 3 -149 57 48 c32 26 92 77 135 113 l76
65 1 53 c0 28 5 52 10 52 6 0 10 5 10 10 0 6 -3 9 -7 9 -5 -1 -71 -13 -148
-27z"/>
<path d="M3850 6590 l0 -50 126 -107 c69 -60 130 -109 135 -111 5 -2 9 58 9
137 0 78 -3 141 -7 141 -5 0 -60 9 -123 20 -63 11 -121 20 -127 20 -9 0 -13
-17 -13 -50z"/>
<path d="M3040 6563 l0 -59 93 -27 c51 -15 96 -27 100 -27 4 0 7 27 7 59 l0
59 -70 21 c-38 12 -83 24 -100 27 l-30 7 0 -60z"/>
<path d="M16248 6582 l-88 -26 0 -62 0 -62 97 29 c53 16 98 29 100 29 1 0 3
27 3 60 0 42 -4 60 -12 59 -7 0 -52 -12 -100 -27z"/>
<path d="M4150 6449 l0 -140 132 113 c72 62 133 118 135 124 3 9 -193 44 -249
44 -16 0 -18 -13 -18 -141z"/>
<path d="M15073 6571 c-62 -10 -116 -21 -120 -26 -5 -4 0 -5 9 -2 10 3 18 0
20 -7 2 -7 53 -55 113 -106 61 -51 120 -102 133 -113 l22 -20 0 146 0 147 -32
-1 c-18 -1 -84 -9 -145 -18z"/>
<path d="M4460 6541 c0 -9 264 -241 275 -241 3 0 5 50 5 110 0 61 -4 110 -8
110 -4 0 -62 7 -127 15 -142 18 -145 18 -145 6z"/>
<path d="M14763 6532 l-123 -15 2 -896 3 -896 5 895 c3 492 6 844 8 782 1 -65
6 -112 11 -110 28 10 271 226 271 241 0 20 -6 20 -177 -1z"/>
<path d="M4430 6395 c0 -76 2 -136 4 -134 7 7 9 259 2 266 -3 4 -6 -56 -6
-132z"/>
<path d="M4283 6404 l-133 -115 0 -135 c0 -128 1 -134 18 -122 10 7 71 58 135
112 l117 100 0 138 c0 76 -1 138 -2 138 -2 -1 -63 -53 -135 -116z"/>
<path d="M4755 5630 c0 -492 1 -694 2 -447 2 246 2 648 0 895 -1 246 -2 44 -2
-448z"/>
<path d="M4774 6505 c-3 -6 -3 -64 -2 -128 l3 -117 132 113 c72 61 128 113
123 115 -5 2 -63 9 -130 15 -88 9 -123 10 -126 2z"/>
<path d="M3850 6378 l0 -133 117 -100 c64 -55 125 -106 135 -113 17 -13 18 -7
18 122 l0 135 -125 108 c-69 60 -130 110 -135 111 -6 2 -10 -49 -10 -130z"/>
<path d="M4460 6374 l0 -139 129 -110 c70 -60 133 -111 140 -113 8 -3 11 34
11 126 l0 130 -72 64 c-40 35 -103 90 -140 122 l-68 58 0 -138z"/>
<path d="M14433 6498 l-91 -10 66 -56 c37 -30 99 -84 138 -119 40 -35 75 -63
78 -63 3 0 6 59 6 130 l0 130 -52 -1 c-29 -1 -94 -6 -145 -11z"/>
<path d="M14964 6380 c0 -74 1 -105 3 -67 2 37 2 97 0 135 -2 37 -3 6 -3 -68z"/>
<path d="M14980 6366 l0 -133 130 -112 c71 -61 132 -111 135 -111 3 0 5 60 5
134 l0 133 -130 112 c-71 61 -132 111 -135 111 -3 0 -5 -60 -5 -134z"/>
<path d="M15408 6388 l-128 -111 0 -133 c0 -74 2 -134 5 -134 3 0 64 50 135
111 l130 112 0 133 c0 74 -3 134 -7 133 -5 0 -65 -50 -135 -111z"/>
<path d="M5084 6475 c-2 -5 -3 -397 -1 -870 l2 -860 43 -3 42 -3 0 869 0 870
-41 4 c-23 2 -43 -1 -45 -7z"/>
<path d="M14268 6482 l-38 -3 0 -875 0 -874 43 0 42 0 -3 567 c-1 313 -3 708
-5 878 l-2 310 -37 -3z"/>
<path d="M14793 6373 l-133 -115 0 -134 c0 -74 2 -134 5 -134 3 0 66 52 140
117 l135 116 0 134 c0 73 -3 133 -7 132 -5 0 -68 -52 -140 -116z"/>
<path d="M3042 6423 l3 -57 85 -27 c47 -15 91 -28 98 -28 8 -1 12 17 12 58 l0
60 -84 25 c-119 37 -118 37 -114 -31z"/>
<path d="M4913 6359 l-143 -121 0 -135 c0 -74 4 -133 8 -131 5 2 70 55 145
118 l136 115 0 138 c1 75 0 137 -1 137 -2 0 -67 -55 -145 -121z"/>
<path d="M5180 5610 c0 -944 -3 -894 54 -849 l26 20 0 843 0 844 -31 6 c-17 3
-35 6 -40 6 -5 0 -9 -380 -9 -870z"/>
<path d="M14168 6473 l-28 -4 0 -850 c0 -836 0 -849 20 -869 11 -11 29 -20 40
-20 20 0 20 7 20 875 0 694 -3 875 -12 874 -7 -1 -25 -4 -40 -6z"/>
<path d="M14340 6333 l0 -139 136 -114 c75 -63 140 -116 145 -118 5 -2 9 55 9
130 l0 134 -47 39 c-27 22 -92 77 -145 123 l-98 83 0 -138z"/>
<path d="M16248 6443 l-88 -26 0 -62 0 -63 58 18 c31 10 76 23 100 29 l42 12
0 59 c0 42 -4 60 -12 59 -7 0 -52 -12 -100 -26z"/>
<path d="M3042 6288 l3 -62 70 -21 c39 -12 83 -25 98 -29 l28 -7 -3 62 -3 61
-95 29 c-52 16 -96 29 -98 29 -2 0 -2 -28 0 -62z"/>
<path d="M16300 6320 c-14 -5 -51 -16 -82 -25 l-58 -16 0 -60 c0 -32 3 -59 7
-59 4 0 49 12 100 26 l93 27 0 58 c0 64 -5 68 -60 49z"/>
<path d="M4432 6123 c1 -110 5 -97 10 35 2 39 0 72 -4 72 -5 0 -7 -48 -6 -107z"/>
<path d="M3850 6113 l0 -108 127 -100 c70 -55 131 -101 135 -103 4 -2 8 41 8
95 l0 99 -117 100 c-64 54 -125 105 -135 112 -17 12 -18 7 -18 -95z"/>
<path d="M4282 6108 l-132 -111 0 -99 c0 -55 4 -98 8 -96 4 2 65 48 135 103
l127 100 0 108 c0 59 -1 107 -3 107 -1 0 -62 -50 -135 -112z"/>
<path d="M14963 6140 c0 -47 2 -66 4 -42 2 23 2 61 0 85 -2 23 -4 4 -4 -43z"/>
<path d="M3042 6148 l3 -62 95 -28 c52 -15 96 -28 98 -28 2 0 2 28 0 62 l-3
62 -95 28 c-52 15 -96 28 -98 28 -2 0 -2 -28 0 -62z"/>
<path d="M4460 6104 l1 -109 124 -98 c69 -54 132 -100 140 -104 14 -5 16 7 14
91 l-2 96 -121 102 c-66 57 -129 109 -138 117 -17 13 -18 7 -18 -95z"/>
<path d="M14980 6103 l0 -109 135 -107 135 -107 0 103 0 102 -101 85 c-56 47
-117 98 -135 113 l-34 28 0 -108z"/>
<path d="M14798 6082 l-138 -117 0 -98 c0 -54 4 -97 8 -95 4 2 67 50 140 107
l132 104 0 109 c0 59 -1 108 -2 108 -2 -1 -65 -53 -140 -118z"/>
<path d="M15408 6092 l-127 -107 -1 -103 0 -103 98 77 c53 43 114 91 135 108
l37 29 0 104 c0 57 -3 103 -7 103 -5 0 -65 -49 -135 -108z"/>
<path d="M16315 6185 c-5 -2 -43 -13 -82 -25 l-73 -21 0 -59 c0 -33 3 -60 8
-60 12 1 171 48 182 55 6 3 10 31 10 61 0 54 -7 62 -45 49z"/>
<path d="M4908 6062 l-137 -117 0 -98 c-1 -57 3 -97 8 -95 5 2 71 51 145 110
l136 108 0 105 c0 58 -3 105 -7 105 -5 -1 -70 -54 -145 -118z"/>
<path d="M14340 6064 l0 -109 134 -105 c74 -57 139 -106 145 -108 7 -2 11 28
11 91 l0 95 -127 109 c-71 60 -136 114 -145 122 -17 13 -18 7 -18 -95z"/>
<path d="M3042 6009 c3 -57 5 -63 28 -69 14 -4 58 -16 98 -28 l72 -20 0 61 0
62 -87 24 c-49 13 -94 26 -101 29 -10 3 -12 -10 -10 -59z"/>
<path d="M16255 6030 l-90 -27 -3 -62 c-2 -33 1 -61 5 -61 4 0 49 13 98 28
l90 28 3 53 c2 30 0 57 -5 61 -4 3 -48 -6 -98 -20z"/>
<path d="M14962 6030 c0 -14 2 -19 5 -12 2 6 2 18 0 25 -3 6 -5 1 -5 -13z"/>
<path d="M4431 5903 c2 -92 6 -82 11 25 2 34 0 62 -4 62 -5 0 -7 -39 -7 -87z"/>
<path d="M3850 5896 l0 -85 53 -39 c28 -21 89 -64 135 -96 l82 -58 0 79 0 78
-127 100 c-70 55 -131 102 -135 103 -4 2 -8 -35 -8 -82z"/>
<path d="M4278 5877 l-128 -102 0 -78 0 -78 83 57 c45 32 106 75 135 96 l52
39 0 84 c0 47 -3 85 -7 84 -5 0 -65 -46 -135 -102z"/>
<path d="M4462 5888 l3 -92 130 -92 c72 -51 133 -93 136 -93 4 -1 7 32 8 72
l1 73 -140 112 -141 112 3 -92z"/>
<path d="M14964 5895 c0 -49 1 -71 3 -48 2 23 2 64 0 90 -2 26 -3 8 -3 -42z"/>
<path d="M14980 5883 l0 -89 107 -75 c59 -41 119 -82 135 -92 l28 -19 0 79 -1
78 -115 90 c-63 50 -124 96 -135 104 -18 13 -19 11 -19 -76z"/>
<path d="M15412 5865 l-132 -105 0 -75 c0 -58 3 -74 13 -69 6 4 67 46 135 93
l122 85 0 88 c0 48 -1 88 -3 88 -1 0 -62 -47 -135 -105z"/>
<path d="M14824 5874 c-177 -140 -164 -123 -164 -205 0 -47 4 -69 11 -67 6 2
69 44 140 93 l129 90 0 88 c0 48 -2 87 -3 87 -2 0 -53 -39 -113 -86z"/>
<path d="M4915 5837 l-140 -112 -3 -79 -3 -78 28 19 c15 11 81 57 146 102
l117 82 0 90 c0 49 -1 89 -2 89 -2 -1 -66 -51 -143 -113z"/>
<path d="M3040 5872 l0 -61 73 -21 c39 -12 84 -25 100 -30 l27 -9 0 63 0 63
-82 23 c-46 12 -91 25 -100 27 -16 5 -18 -2 -18 -55z"/>
<path d="M14340 5843 l1 -88 137 -95 c75 -52 140 -96 144 -98 5 -2 8 30 8 71
l0 75 -140 111 c-77 61 -142 111 -145 111 -3 0 -5 -39 -5 -87z"/>
<path d="M16255 5891 l-90 -28 -3 -62 c-2 -33 -2 -61 0 -61 2 0 46 13 98 28
l95 28 3 62 c2 34 -1 62 -5 61 -4 0 -48 -13 -98 -28z"/>
<path d="M3040 5730 l0 -59 43 -12 c23 -6 68 -19 100 -29 l57 -18 0 63 0 62
-93 27 c-51 14 -96 26 -100 26 -4 0 -7 -27 -7 -60z"/>
<path d="M4285 5696 l-130 -92 -3 -93 -3 -93 98 68 c54 37 115 80 135 94 l37
25 1 93 c0 50 -1 92 -2 91 -2 0 -61 -42 -133 -93z"/>
<path d="M4432 5698 c1 -95 5 -83 10 30 2 34 0 62 -4 62 -5 0 -7 -42 -6 -92z"/>
<path d="M3850 5693 l1 -88 37 -25 c20 -14 81 -57 135 -94 l98 -68 -3 93 -3
93 -125 88 c-69 48 -128 88 -132 88 -5 0 -8 -39 -8 -87z"/>
<path d="M4460 5689 l1 -94 130 -90 c72 -49 135 -91 140 -93 11 -4 12 158 1
173 -4 6 -61 49 -127 94 -66 46 -126 88 -132 94 -10 7 -13 -11 -13 -84z"/>
<path d="M14964 5690 c0 -52 1 -74 3 -47 2 26 2 68 0 95 -2 26 -3 4 -3 -48z"/>
<path d="M16255 5751 l-90 -27 -3 -62 c-2 -34 -2 -62 0 -62 2 0 46 13 98 29
l95 28 3 62 c2 33 -1 61 -5 60 -4 0 -48 -13 -98 -28z"/>
<path d="M14800 5671 l-135 -97 -3 -88 c-2 -74 0 -88 12 -83 8 3 71 45 140 94
l126 87 0 93 c0 51 -1 93 -2 92 -2 0 -64 -44 -138 -98z"/>
<path d="M14980 5682 l0 -88 123 -85 c67 -47 128 -89 135 -93 9 -5 12 14 12
83 l0 89 -130 91 c-71 50 -132 91 -135 91 -3 0 -5 -40 -5 -88z"/>
<path d="M15408 5678 l-128 -91 0 -89 c0 -49 4 -88 8 -86 4 2 65 43 135 92
l127 89 0 88 c0 49 -3 89 -7 88 -5 0 -65 -42 -135 -91z"/>
<path d="M4913 5649 l-143 -100 0 -90 c0 -70 3 -88 13 -83 29 19 253 177 265
188 9 9 12 38 10 99 l-3 87 -142 -101z"/>
<path d="M14340 5648 l1 -93 136 -95 c75 -52 141 -96 145 -98 4 -2 8 37 8 86
l0 90 -87 60 c-49 33 -114 79 -145 102 l-58 41 0 -93z"/>
<path d="M3040 5592 l0 -59 88 -26 c49 -15 94 -27 100 -27 8 0 12 21 12 58 l0
59 -88 26 c-49 15 -94 27 -100 27 -8 0 -12 -21 -12 -58z"/>
<path d="M16248 5611 l-88 -26 0 -62 c0 -45 3 -61 13 -58 6 2 51 15 100 30
l87 26 0 59 c0 42 -4 60 -12 59 -7 -1 -52 -13 -100 -28z"/>
<path d="M4285 5496 l-130 -93 -3 -67 c-2 -36 0 -66 3 -66 3 0 64 41 135 91
l130 91 0 69 c0 38 -1 69 -2 68 -2 0 -61 -42 -133 -93z"/>
<path d="M4431 5523 c2 -70 6 -63 11 20 2 26 0 47 -4 47 -5 0 -7 -30 -7 -67z"/>
<path d="M3850 5516 l0 -65 129 -90 c71 -50 132 -91 135 -91 3 0 6 29 6 64 l0
65 -125 88 c-69 48 -130 90 -135 91 -6 2 -10 -23 -10 -62z"/>
<path d="M4460 5512 l0 -70 130 -91 c71 -50 134 -91 140 -91 6 0 10 25 10 58
0 67 -1 68 -115 147 -38 27 -91 64 -117 82 l-48 35 0 -70z"/>
<path d="M14963 5510 c0 -41 2 -58 4 -37 2 20 2 54 0 75 -2 20 -4 3 -4 -38z"/>
<path d="M14982 5504 l3 -68 70 -49 c39 -27 98 -70 133 -94 l62 -44 0 69 0 69
-127 89 c-70 49 -131 91 -135 92 -5 2 -8 -27 -6 -64z"/>
<path d="M15408 5477 l-128 -91 0 -69 0 -68 83 57 c45 32 106 75 135 96 l52
39 0 64 c0 36 -3 65 -7 64 -5 0 -65 -42 -135 -92z"/>
<path d="M14793 5464 l-133 -95 0 -64 c0 -36 3 -65 8 -64 4 0 66 42 137 93
l130 92 3 67 c2 37 -1 67 -5 67 -4 -1 -68 -44 -140 -96z"/>
<path d="M4913 5449 l-143 -101 0 -64 c0 -35 3 -64 6 -64 3 0 69 44 145 97
l139 97 0 68 c0 37 -1 68 -2 68 -2 -1 -67 -46 -145 -101z"/>
<path d="M14340 5470 l0 -69 118 -82 c64 -45 129 -91 145 -101 l27 -19 0 68 0
69 -145 102 -145 101 0 -69z"/>
<path d="M3040 5452 l0 -58 93 -27 c51 -15 96 -27 100 -27 4 0 7 27 7 60 l0
59 -37 10 c-21 6 -60 17 -88 26 -75 22 -75 22 -75 -43z"/>
<path d="M16248 5472 l-88 -25 0 -63 0 -63 28 9 c15 5 60 18 100 30 l72 21 0
59 c0 42 -4 60 -12 59 -7 -1 -52 -13 -100 -27z"/>
<path d="M4433 5360 c0 -47 2 -66 4 -42 2 23 2 61 0 85 -2 23 -4 4 -4 -43z"/>
<path d="M3850 5352 l0 -79 129 -91 c72 -51 132 -92 135 -92 4 0 6 35 6 78 l0
77 -122 85 c-67 47 -128 89 -135 93 -10 6 -13 -8 -13 -71z"/>
<path d="M4282 5338 l-132 -93 0 -78 c0 -43 4 -77 8 -75 4 2 65 43 135 92
l127 89 0 78 c0 44 -1 79 -3 79 -1 0 -62 -42 -135 -92z"/>
<path d="M4460 5343 l0 -79 124 -87 c69 -48 132 -90 140 -93 14 -5 16 5 16 69
l0 75 -127 89 c-71 49 -134 93 -140 97 -10 5 -13 -11 -13 -71z"/>
<path d="M14982 5340 l3 -83 133 -93 132 -94 0 80 0 79 -52 39 c-29 21 -90 64
-136 96 l-83 58 3 -82z"/>
<path d="M14798 5312 l-138 -96 0 -78 c0 -43 2 -78 5 -78 2 0 65 43 140 96
l135 96 0 79 c0 43 -1 79 -2 78 -2 0 -65 -44 -140 -97z"/>
<path d="M15420 5329 c-63 -44 -121 -86 -128 -93 -9 -9 -12 -36 -10 -88 l3
-75 130 91 130 92 3 77 c2 42 -1 77 -5 77 -4 0 -60 -36 -123 -81z"/>
<path d="M14963 5335 c0 -38 2 -53 4 -32 2 20 2 52 0 70 -2 17 -4 1 -4 -38z"/>
<path d="M4960 5328 c-47 -34 -109 -78 -137 -100 l-53 -39 0 -74 c0 -41 3 -75
6 -75 3 0 68 44 145 98 l139 97 0 78 c0 42 -3 77 -7 76 -5 0 -46 -28 -93 -61z"/>
<path d="M14340 5301 l0 -79 131 -92 c71 -50 137 -94 145 -97 13 -5 14 7 12
72 l-3 78 -140 98 c-77 55 -141 99 -142 99 -2 0 -3 -36 -3 -79z"/>
<path d="M3040 5317 c0 -31 4 -59 10 -62 11 -7 170 -54 183 -55 4 0 7 27 7 60
l0 59 -68 20 c-38 12 -83 24 -100 27 l-32 7 0 -56z"/>
<path d="M16248 5333 l-88 -26 0 -62 0 -63 58 18 c31 10 76 23 100 29 l42 12
0 59 c0 42 -4 60 -12 59 -7 0 -52 -12 -100 -26z"/>
<path d="M4433 5180 c0 -47 2 -66 4 -42 2 23 2 61 0 85 -2 23 -4 4 -4 -43z"/>
<path d="M3850 5168 l0 -83 107 -75 c58 -41 119 -83 135 -93 l28 -19 0 84 0
84 -107 75 c-59 41 -119 82 -135 92 l-28 19 0 -84z"/>
<path d="M4278 5157 l-128 -91 0 -84 c0 -66 3 -81 13 -75 7 4 68 46 135 93
l122 85 0 83 c0 45 -3 82 -7 81 -5 0 -65 -42 -135 -92z"/>
<path d="M3042 5178 l3 -62 70 -21 c39 -12 83 -25 98 -29 l28 -7 -3 62 -3 61
-95 29 c-52 16 -96 29 -98 29 -2 0 -2 -28 0 -62z"/>
<path d="M4460 5158 l1 -83 133 -92 c74 -51 137 -93 140 -93 3 0 6 36 6 79 l0
79 -136 96 c-74 53 -137 96 -140 96 -2 0 -4 -37 -4 -82z"/>
<path d="M14963 5165 c0 -44 2 -61 4 -37 2 23 2 59 0 80 -2 20 -4 1 -4 -43z"/>
<path d="M14980 5157 l0 -84 127 -89 c70 -49 131 -90 135 -92 4 -2 8 34 8 80
l-1 83 -37 25 c-20 14 -81 56 -134 94 l-98 67 0 -84z"/>
<path d="M14798 5133 l-138 -97 0 -78 c0 -43 4 -78 9 -78 5 0 68 41 140 92
l131 92 0 83 c0 46 -1 83 -2 83 -2 -1 -65 -44 -140 -97z"/>
<path d="M15408 5143 l-127 -88 -1 -82 c0 -46 2 -83 5 -83 3 0 64 41 135 91
l130 91 0 79 c0 43 -3 79 -8 79 -4 0 -65 -39 -134 -87z"/>
<path d="M16243 5193 l-83 -26 0 -58 c0 -33 3 -59 7 -59 4 0 49 12 100 26 l93
27 0 58 c0 70 3 69 -117 32z"/>
<path d="M4908 5112 l-138 -97 0 -82 c0 -46 2 -83 4 -83 4 0 174 119 254 177
31 24 32 25 32 104 0 43 -3 79 -7 79 -5 -1 -70 -45 -145 -98z"/>
<path d="M14340 5118 l0 -83 136 -95 c75 -52 140 -97 146 -98 5 -2 8 31 6 79
l-3 83 -125 89 c-178 125 -160 122 -160 25z"/>
<path d="M3042 5038 l3 -62 95 -28 c52 -15 96 -28 98 -28 2 0 2 28 0 62 l-3
62 -95 28 c-52 15 -96 28 -98 28 -2 0 -2 -28 0 -62z"/>
<path d="M16315 5075 c-5 -2 -43 -13 -82 -25 l-73 -21 0 -61 c0 -53 2 -60 18
-55 9 2 54 15 100 27 l82 23 0 59 c0 59 -7 67 -45 53z"/>
<path d="M4432 4903 c2 -170 6 -150 10 55 2 61 0 112 -4 112 -5 0 -7 -75 -6
-167z"/>
<path d="M3853 4953 c4 -58 7 -130 7 -160 l0 -53 130 0 130 0 0 69 0 69 -130
91 c-71 50 -133 91 -136 91 -4 0 -4 -48 -1 -107z"/>
<path d="M4278 4969 c-140 -99 -138 -95 -122 -191 l7 -38 128 0 129 0 0 160
c0 88 -3 160 -7 160 -5 -1 -65 -41 -135 -91z"/>
<path d="M4460 4899 l0 -160 138 3 137 3 3 56 c3 65 13 55 -155 173 l-123 86
0 -161z"/>
<path d="M14964 4895 c0 -93 2 -133 3 -88 2 45 2 122 0 170 -1 48 -3 12 -3
-82z"/>
<path d="M14980 4891 l0 -161 129 0 128 0 7 38 c15 94 18 90 -121 188 -70 49
-131 91 -135 92 -4 2 -8 -69 -8 -157z"/>
<path d="M15412 4958 l-132 -92 0 -68 0 -68 129 0 128 0 8 156 c4 85 5 157 3
159 -2 3 -63 -37 -136 -87z"/>
<path d="M14793 4943 l-133 -95 0 -59 0 -59 140 0 140 0 0 155 c0 85 -3 155
-7 154 -5 0 -68 -44 -140 -96z"/>
<path d="M4913 4928 l-143 -101 0 -43 0 -44 145 0 145 0 0 145 c0 80 -1 145
-2 145 -2 -1 -67 -46 -145 -102z"/>
<path d="M14340 4870 l0 -140 145 0 145 0 0 43 0 42 -139 98 c-77 53 -142 97
-145 97 -3 0 -6 -63 -6 -140z"/>
<path d="M3040 4918 c0 -78 4 -82 93 -107 45 -13 88 -25 95 -28 10 -4 12 10
10 58 l-3 63 -70 21 c-134 41 -125 41 -125 -7z"/>
<path d="M16345 4944 c-5 -2 -49 -15 -97 -29 l-88 -26 0 -60 c0 -53 2 -60 18
-55 9 3 52 15 94 27 73 21 78 24 84 54 8 42 1 93 -11 89z"/>
<path d="M3830 4827 c0 -49 4 -87 10 -87 8 0 3 159 -6 169 -2 2 -4 -35 -4 -82z"/>
<path d="M15559 4820 c-4 -47 -5 -87 -3 -89 11 -12 15 15 12 90 l-3 84 -6 -85z"/>
<path d="M3060 4808 c0 -5 13 -23 29 -39 26 -26 36 -29 90 -29 90 0 78 20 -29
51 -50 15 -90 22 -90 17z"/>
<path d="M16241 4776 c-98 -30 -103 -46 -16 -46 59 0 69 3 90 26 47 50 35 53
-74 20z"/>
<path d="M4132 4765 c0 -16 2 -22 5 -12 2 9 2 23 0 30 -3 6 -5 -1 -5 -18z"/>
<path d="M15261 4744 c0 -11 3 -14 6 -6 3 7 2 16 -1 19 -3 4 -6 -2 -5 -13z"/>
<path d="M6710 8338 l0 -392 27 -28 27 -28 2941 0 2941 0 32 33 32 33 0 387 0
387 -3000 0 -3000 0 0 -392z"/>
<path d="M7730 7515 l0 -355 1928 2 1927 3 3 353 2 352 -1930 0 -1930 0 0
-355z"/>
<path d="M9678 7142 l-1538 -2 0 -280 0 -280 1550 0 1550 0 -2 282 c-2 178 -7
282 -13 282 -5 1 -702 0 -1547 -2z"/>
<path d="M11566 7095 c-172 -61 -218 -284 -84 -412 46 -44 96 -63 170 -63 140
0 241 102 241 245 1 168 -168 287 -327 230z"/>
<path d="M12138 7101 c-84 -27 -151 -104 -170 -194 -9 -43 -8 -62 6 -110 32
-110 121 -177 234 -177 73 0 114 15 166 60 164 145 71 413 -147 426 -34 2 -74
0 -89 -5z"/>
<path d="M7090 7081 c-74 -24 -139 -82 -166 -147 -35 -84 -3 -219 66 -277 79
-67 191 -80 279 -32 180 98 173 346 -12 441 -35 19 -131 27 -167 15z"/>
<path d="M7683 7074 c-51 -18 -112 -75 -138 -129 -27 -56 -26 -157 2 -211 82
-155 286 -185 402 -59 175 190 -22 485 -266 399z"/>
</g>
</svg>
